<?xml version="1.0" encoding="utf-8"?>
<!-- Generator: Adobe Illustrator 24.3.0, SVG Export Plug-In . SVG Version: 6.00 Build 0)  -->
<svg version="1.1" id="图层_1" xmlns="http://www.w3.org/2000/svg" xmlns:xlink="http://www.w3.org/1999/xlink" x="0px" y="0px"
	 viewBox="0 0 84.4 77" style="enable-background:new 0 0 84.4 77;" xml:space="preserve">
<style type="text/css">
	.st0{display:none;}
	.st1{display:inline;fill:#FFFFFF;}
	.st2{clip-path:url(#SVGID_2_);}
	.st3{clip-path:url(#SVGID_4_);}
	.st4{fill:#78082A;}
	.st5{fill:#E51050;}
	.st6{fill:#E85984;}
	.st7{clip-path:url(#SVGID_6_);}
	.st8{fill:#FFFFFF;}
</style>
<g id="a6a172d0-0e61-4a3e-b668-c8009b634a7e" class="st0">
	<path class="st1" d="M118.6,37.5h-8.7l-1.9,6.6h-4.6l7.7-25.2h6.2l8.1,25.2h-4.7L118.6,37.5z M110.9,33.8h6.6l-3.3-11.8L110.9,33.8
		z"/>
	<path class="st1" d="M143.6,25v19.2h-3.8l-0.3-2.1c-1.5,1.7-3.6,2.6-5.8,2.6c-3.4,0-6.1-2.2-6.1-5.8V25h4.5v13.6
		c-0.2,1.3,0.8,2.5,2.1,2.7c0.2,0,0.4,0,0.6,0c1.8-0.1,3.4-1,4.3-2.4V25H143.6z"/>
	<path class="st1" d="M158.6,44.1c-1.1,0.3-2.2,0.5-3.3,0.5c-3.7,0-5.8-1.6-5.8-5.2V28.3h-2.9V25h3l0.4-4.7h4V25h4.1v3.3h-4.1v10.8
		c0,1.4,0.8,2.1,2.3,2.1c0.6,0,1.3-0.1,1.9-0.2L158.6,44.1z"/>
	<path class="st1" d="M178.1,33.5v1.9c0,5.4-3.2,9.1-9.1,9.1c-5.9,0-9-3.7-9-9.1v-1.9c0-5.3,3.1-9.1,9-9.1
		C174.9,24.5,178.1,28.3,178.1,33.5z M164.5,33.5v2c0,3.8,1.5,5.8,4.5,5.8c3,0,4.6-2,4.6-5.8v-2c0-3.7-1.6-5.6-4.6-5.6
		C166.1,27.8,164.5,29.8,164.5,33.5L164.5,33.5z"/>
	<path class="st1" d="M181.4,35.1v-6.6c0-6.2,3.8-10,10.1-10c2.8-0.1,5.6,0.9,7.7,2.7l-2.3,2.6c-1.5-1.2-3.4-1.8-5.3-1.8
		c-3.7,0-5.7,2.3-5.7,6.3V35c0,4,1.8,6,5.5,6c2,0,4-0.6,5.7-1.8l1.9,2.7c-2.2,1.7-4.9,2.6-7.7,2.6C185,44.6,181.4,40.8,181.4,35.1z"
		/>
	<path class="st1" d="M216.3,37.5h-8.7l-1.9,6.6h-4.6l7.7-25.2h6.2l8.1,25.2h-4.7L216.3,37.5z M208.6,33.8h6.6l-3.3-11.8L208.6,33.8
		z"/>
	<path class="st1" d="M245.2,29v4.5c0,6.6-3.9,10.7-11.2,10.7h-7.3V18.9h8.2C241.8,18.9,245.2,22.9,245.2,29z M240.7,28.9
		c0-4.1-1.9-6.5-5.9-6.5h-3.5v18.2h2.8c4.4,0,6.6-2.3,6.6-7.1L240.7,28.9z"/>
	<path class="st1" d="M273.3,40.4v3.7H257v-2.6c0-4.5,2.2-6.9,5.1-8.9l3.5-2.4c2.3-1.5,3.1-2.5,3.1-4.1v-0.9c0-1.5-1.2-3.3-4.2-3.3
		c-2.2,0-4.3,0.8-6,2.2l-2-2.7c2.3-1.9,5.3-3,8.3-3c5.4,0,8.4,3.3,8.4,6.7v1.1c0,2.5-1.5,4.7-5.4,7.2l-2.8,1.8
		c-2.8,1.8-3.5,3.3-3.6,5.2L273.3,40.4z"/>
	<path class="st1" d="M276.6,35.8v-8.5c0-5.5,3.4-8.9,9.3-8.9c5.7,0,9,3.3,9,8.9v8.5c0,5.4-3.3,8.7-9,8.7
		C280,44.6,276.6,41.2,276.6,35.8z M290.5,35.9v-8.6c0-3.6-1.8-5.4-4.5-5.4c-3,0-4.8,1.8-4.8,5.4v8.6c0,3.5,1.8,5.2,4.8,5.2
		C288.7,41,290.5,39.3,290.5,35.9z"/>
	<path class="st1" d="M314.2,40.4v3.7H298v-2.6c0-4.5,2.2-6.9,5.1-8.9l3.5-2.4c2.3-1.5,3.1-2.5,3.1-4.1v-0.9c0-1.5-1.2-3.3-4.2-3.3
		c-2.2,0-4.3,0.8-6,2.2l-2-2.7c2.3-1.9,5.3-3,8.3-3c5.4,0,8.4,3.3,8.4,6.7v1.1c0,2.5-1.5,4.7-5.4,7.2l-2.8,1.8
		c-2.8,1.8-3.5,3.3-3.6,5.2L314.2,40.4z"/>
	<path class="st1" d="M316.9,40.7l2.6-2.5c1.6,1.8,3.9,2.9,6.3,2.9c2.8,0,5.1-1.1,5.1-4v-0.9c0-3.1-3.2-3.9-5.1-3.9h-2.3v-3.2h2.3
		c1.9,0,4.4-0.7,4.4-3.2v-0.8c0-2.4-2-3.3-4.3-3.3c-2.3,0-4.5,1-6.1,2.7l-2.4-2.4c2.3-2.4,5.5-3.7,8.9-3.7c4.6,0,8.4,2.4,8.4,6.2V26
		c0,2.3-2.2,4-4.3,4.5c2.2,0.4,5.2,2.3,5.2,5.4v1.6c0,4-4,7.1-9.4,7.1C321.3,44.6,318.8,42.9,316.9,40.7z"/>
</g>
<g id="fd51a187-c754-4dbb-adf3-1186bf5bf3aa">
	<g>
		<defs>
			<rect id="SVGID_1_" width="84.4" height="77"/>
		</defs>
		<clipPath id="SVGID_2_">
			<use xlink:href="#SVGID_1_"  style="overflow:visible;"/>
		</clipPath>
		<g class="st2">
			<g>
				<defs>
					<rect id="SVGID_3_" width="84.4" height="77"/>
				</defs>
				<clipPath id="SVGID_4_">
					<use xlink:href="#SVGID_3_"  style="overflow:visible;"/>
				</clipPath>
				<g class="st3">
					<path class="st4" d="M7.4,14.2h77V77H12c-2.5,0-4.5-2-4.5-4.6l0,0L7.4,14.2z"/>
					<path class="st5" d="M78.2,63H13.7V0h60c2.5,0,4.6,2,4.6,4.5c0,0,0,0,0,0L78.2,63z"/>
					<polygon class="st6" points="0,71.2 13.7,63 13.7,0 0,8.2 					"/>
				</g>
			</g>
			<g>
				<defs>
					<rect id="SVGID_5_" width="84.4" height="77"/>
				</defs>
				<clipPath id="SVGID_6_">
					<use xlink:href="#SVGID_5_"  style="overflow:visible;"/>
				</clipPath>
				<g class="st7">
					<path class="st8" d="M51,41.4H40.5L38.5,49h-8.7l10-34.9h11.6L62,49h-8.9L51,41.4z M45.6,19.8l-3.5,15.1h7.2L45.6,19.8z"/>
				</g>
			</g>
		</g>
	</g>
</g>
</svg>
