<svg id="Layer_1" data-name="Layer 1" xmlns="http://www.w3.org/2000/svg" viewBox="0 0 566.93 566.93"><defs><style>.cls-1{fill:#221e1f;}.cls-2{fill:#fff;}.cls-3{fill:#ed1b23;}</style></defs><rect class="cls-1" width="566.93" height="566.93"/><path class="cls-2" d="M64.51,224.5c53.63-17.16,115.34.19,162.46,86.35,4.24,8.28,9.71,6.21,9.41-2.22,1-8.72-.34-45.33-23.21-77.75-.77-1.68.05-2.59,1.28-3.82,5.37-4,45.05-12.42,89.41-44.17,3.42-2.34,18.23-9.36,15.77-30.41-7.39-51.9-48.8-87.09-60.33-94.19s-10.25,5.33-10.05,7.2c-2.08,40.12-14.12,99.07-57,139.29-15.32-4.34-20.74-15.18-20.74-15.18s57.86-75.51,42.88-135.84c-3.94-17-8.58-23-27.51-19.13s-63.87,18-63.87,18-7,2.67-1.48,9.76,32.13,33.91,10.45,108.83c-19.72-6.7-63.09-15-67.43-3.15S45.19,223.9,64.51,224.5Z" transform="translate(0 0)"/><path class="cls-2" d="M249.54,253.48c-.59,3.1,2.66,21.29,0,36.37-4.44,11.24-5.93,18,2.8,24.84s74,37.56,112.24,78.57c14.64,14.88,22-3.6,11.24-12.17-3-3.26-16.86-15.68-16.56-20s8.28,4,11.23,7.1c-8-16.12,9.47-36.67,28.1-13.45,7.59,7.34,2.27,24.69-4.24,29.42,7.13-7.13-5.27-24.89-15.18-15-5.13,4.93,9,16.06,12.12,18.82s14.4-6.6,18.34-13.11c2.9-4,7.07-7.44,13.11-33.51,1.92-6.76,4.41-9.2,10.45-15.24s94-79.79,103.8-110.84c5.72-16.17,3-21.89-9.17-10.35s-79.25,61.8-104.69,68.9S393.27,268.12,397,265c2.25-2.25,58.8-63.39-4-30.46-23,8.48-45.49-10.25-50.22-27-10-31.92-9.66-38.25-32.34-18.73-12.22,10.05-33.91,20.9-42.19,23.85-24.84,5.92-34.7,33.72-14.59,36.48s31-.39,25.53,5.37-13.6,10.94-4.43,16,26.67,17.45,27.68,18.63,9.14,2.22,11.5-3.69.3-7.55-1.33-8.43.15-3.55,4-3.11,13-3.1,15.23-4.73,28.25-5.91,34.6,3.11c-7.21,2.25-9.31-2.42-19.51,1.18-5.6,2.16-19.18,3.88-25.59,18.33-4.78,10.8-6.55,33.08-26.07,26.77s-39.58-12.27-36.47-31.94S260.48,254.22,249.54,253.48Z" transform="translate(0 0)"/><path class="cls-1" d="M284.63,268.85c9.37,5.23,12.52,8.68,13.71,10s7.69,1.87,7-4.24c-2.77-5-12.72-11.93-15.28-12S282.47,263.14,284.63,268.85Z" transform="translate(0 0)"/><path class="cls-2" d="M94.76,501.07,75.37,469.89c-2.21,0-5.72-.17-10.51-.5v31.68H55V428.44q.54,0,7.71-.37t10.43-.37q26.18,0,26.18,20.82a19.7,19.7,0,0,1-4.22,12.32,17.47,17.47,0,0,1-10,6.82l21.07,33.41Zm-29.9-63.7V461a50.46,50.46,0,0,0,6.94.49q8.92,0,13-2.88t4.07-10.26q0-6.09-4.37-8.77t-13.78-2.68Q69.22,436.87,64.86,437.37Z" transform="translate(0 0)"/><path class="cls-2" d="M145.52,501.07V467.71q0-6-2.92-9.37a10.24,10.24,0,0,0-8.23-3.42,13.64,13.64,0,0,0-6.87,2,16.13,16.13,0,0,0-5.28,4.69v39.46H112.8V426.21h9.42v27.62a14.06,14.06,0,0,1,6.08-4.89,20.26,20.26,0,0,1,8.65-2q8.43,0,13.21,5.56T155,467.71v33.36Z" transform="translate(0 0)"/><path class="cls-2" d="M249.24,474.4q0-12.3,6.62-19.86T273.29,447q11.4,0,17.7,7.27t6.29,20.15q0,12.84-6.44,20.25t-17.55,7.41q-11.35,0-17.7-7.48T249.24,474.4Zm9.92,0q0,20,14.13,20A11.91,11.91,0,0,0,283.62,489q3.75-5.36,3.75-14.63,0-19.74-14.08-19.73A12.11,12.11,0,0,0,263,459.92Q259.16,465.19,259.16,474.4Z" transform="translate(0 0)"/><path class="cls-3" d="M347.26,452.29l-4.66,6.64a13.78,13.78,0,0,0-5.08-2.72,21.4,21.4,0,0,0-7.17-1.29q-7.68,0-12.19,5.38T313.64,475q0,9.33,4.61,14.21t12.8,4.88q6.34,0,12.79-4.91l3.71,7.94q-7.57,4.9-18.78,4.9-10.86,0-17.95-7.28T303.73,475q0-12.69,7.36-20.37T331.24,447a26.38,26.38,0,0,1,8.93,1.74A25.61,25.61,0,0,1,347.26,452.29Z" transform="translate(0 0)"/><path class="cls-3" d="M402.19,475.44H363.92q0,9.33,5.1,14.33a16,16,0,0,0,11.6,4.36,19.79,19.79,0,0,0,13.49-4.71l4,6.79a17.76,17.76,0,0,1-6.7,3.77,36.14,36.14,0,0,1-12.59,2.08,23.49,23.49,0,0,1-17-6.79Q354,487.79,354,475.14q0-13.14,8-21.07A23.22,23.22,0,0,1,378.89,447q11.36,0,17.8,6.4,6.24,6.15,6.24,16.31A20.9,20.9,0,0,1,402.19,475.44Zm-22.85-20.52a14.87,14.87,0,0,0-15.18,13.68h29.4a13.41,13.41,0,0,0-3.57-9.52Q386.08,454.91,379.34,454.92Z" transform="translate(0 0)"/><path class="cls-3" d="M441.7,457.05a10.79,10.79,0,0,0-6.19-2.13q-5,0-8.75,4.61a17,17,0,0,0-3.75,11.1v30.44h-9.42V448H423v8.47q5.16-9.46,15.32-9.47a42.43,42.43,0,0,1,7.29.9Z" transform="translate(0 0)"/><path class="cls-3" d="M448.84,474.4q0-12.3,6.62-19.86T472.89,447q11.4,0,17.7,7.27t6.29,20.15q0,12.84-6.44,20.25t-17.55,7.41q-11.36,0-17.7-7.48T448.84,474.4Zm9.92,0q0,20,14.13,20A11.91,11.91,0,0,0,483.22,489Q487,483.67,487,474.4q0-19.74-14.08-19.73a12.11,12.11,0,0,0-10.29,5.25Q458.76,465.19,458.76,474.4Z" transform="translate(0 0)"/><path class="cls-3" d="M503.33,497.9l3.32-8.92q7.89,5.14,12.69,5.15,8.73,0,8.73-7.33,0-5.26-8.43-9a69.27,69.27,0,0,1-8.75-4.51,19.68,19.68,0,0,1-3.92-3.49,14.25,14.25,0,0,1-2.48-4.17,13.64,13.64,0,0,1-.81-4.74,12.15,12.15,0,0,1,4.76-10.21Q513.2,447,520.88,447q5.8,0,14.62,3.67l-2.67,8.73q-5.61-4.47-11.26-4.46a9.73,9.73,0,0,0-5.67,1.58,4.73,4.73,0,0,0-2.31,4q0,5.1,5.8,7.73l6.74,3.08c4.14,1.88,7.14,4,9,6.44a14.31,14.31,0,0,1,2.82,9.07q0,7.14-5,11.18t-13.89,4A31.54,31.54,0,0,1,503.33,497.9Z" transform="translate(0 0)"/><path class="cls-2" d="M178,439.55a5.84,5.84,0,0,0,5.85-5.85,5.58,5.58,0,0,0-1.71-4.09,5.82,5.82,0,1,0-8.23,8.23A5.58,5.58,0,0,0,178,439.55Z" transform="translate(0 0)"/><polygon class="cls-2" points="172.84 455.91 172.84 501.07 182.26 501.07 182.26 447.98 172.84 447.98 172.84 455.91"/><path class="cls-2" d="M221.88,447q-10.56,0-15.22,7.84V448h-9.42v53.09h9.42V461.61a15,15,0,0,1,5.4-4.76,14,14,0,0,1,6.74-1.93q6,0,8.55,3.39c1.71,2.27,2.56,6.22,2.56,11.88v30.88h9.42V468.2Q239.33,447,221.88,447Z" transform="translate(0 0)"/></svg>