<?xml version="1.0" encoding="utf-8"?>
<!-- Generator: Adobe Illustrator 25.0.1, SVG Export Plug-In . SVG Version: 6.00 Build 0)  -->
<svg version="1.1" id="Layer_1" xmlns="http://www.w3.org/2000/svg" xmlns:xlink="http://www.w3.org/1999/xlink" x="0px" y="0px"
	 width="200px" height="200px" viewBox="0 0 200 200" style="enable-background:new 0 0 200 200;" xml:space="preserve">
<g id="Products">
</g>
<g id="Products_1_">
</g>
<g id="Products_2_">
</g>
<g id="Products_3_">
</g>
<g id="Products_4_">
</g>
<g id="Products_5_">
</g>
<g id="Products_6_">
</g>
<g id="Products_7_">
</g>
<g>
	<rect x="0" y="0" style="fill:#2857AF;" width="200" height="200"/>
	<g>
		<path style="fill:#FFFFFF;" d="M81.6154022,121.4459c1.358902,1.9189529,2.9176407,2.9983902,4.2765427,2.9184189
			c1.5587387-0.0799561,3.3572845-1.6791,4.6762161-4.117775c4.2365799-7.8757629,6.9943466-15.6315842,9.6721802-23.1075592
			c3.7569733-10.5143433,7.5938797-21.3485107,15.3476028-31.5830002
			c8.1933746-10.6742477,21.1029282-14.8320122,25.8191299-15.9913864c0.7194214-0.199894,0.9192505-1.1194,0.3597107-1.5591621
			c-11.4707336-9.1950493-25.9390335-14.6721039-41.6863098-14.6721039c-7.713768,0-15.1477585,1.3192902-22.0621643,3.7579765
			C69.505188,40.089695,63.7898064,48.085392,63.5500031,57.1205254
			C63.1503296,74.5511398,65.9480667,99.4977112,81.6154022,121.4459"/>
		<path style="fill:#FFFFFF;" d="M143.6053009,64.9962845c-7.1142578,0.9195023-12.3100433,5.9967728-15.427536,10.0745697
			c-6.2749329,8.3155289-9.4323807,17.1107941-13.0694427,27.3452835
			c-2.8776779,8.035675-5.8352737,16.3511963-10.6314087,25.3063736
			c-3.9967651,7.435997-10.3915939,15.0318985-17.5857849,15.5116348c-0.3996811,0-0.7593842,0.039978-1.1590576,0.039978
			c-6.51474,0-12.7097321-6.5164795-17.0662079-12.633194C52.5988503,108.093071,48.0825005,83.4263535,47.60289,64.2766647
			c-0.0399666-1.7190742-2.2381897-2.3187523-3.237381-0.8795242c-9.4723473,13.8725281-13.9087563,33.1821289-9.0326996,52.6916275
			c6.2349586,24.9065933,26.418644,43.6565018,49.5599365,48.8537064
			c43.3649597,9.7547455,81.7739258-23.2275085,81.7739258-64.9650269c0-8.3954773-1.5587463-16.4311523-4.3964539-23.8271713
			c-2.0783234-5.3970947-6.6746063-9.5548553-12.3100433-10.7941895
			C147.8019104,64.8363724,145.6836243,64.7164307,143.6053009,64.9962845"/>
	</g>
</g>
</svg>
